<svg width="24" height="25" viewBox="0 0 24 25" fill="none" xmlns="http://www.w3.org/2000/svg">
<path opacity="0.2" d="M8.67187 12.1477C9.44364 13.7415 10.7324 15.0269 12.3281 15.7946C12.4458 15.8503 12.576 15.8745 12.7059 15.8646C12.8358 15.8547 12.9608 15.8112 13.0687 15.7383L15.4125 14.1727C15.516 14.1025 15.6357 14.0596 15.7603 14.0482C15.8849 14.0367 16.0104 14.057 16.125 14.1071L20.5125 15.9915C20.6625 16.0539 20.7877 16.1639 20.869 16.3045C20.9504 16.4451 20.9832 16.6085 20.9625 16.7696C20.8234 17.855 20.2937 18.8525 19.4723 19.5755C18.6509 20.2985 17.5943 20.6975 16.5 20.6977C13.1185 20.6977 9.87548 19.3544 7.48439 16.9633C5.0933 14.5722 3.75 11.3292 3.75 7.94772C3.75025 6.85347 4.1492 5.7968 4.87221 4.97543C5.59522 4.15406 6.59274 3.62428 7.67812 3.48522C7.83922 3.46453 8.00266 3.49737 8.14326 3.57868C8.28386 3.65999 8.39384 3.78527 8.45625 3.93522L10.3406 8.3321C10.3896 8.44492 10.4101 8.56807 10.4003 8.69069C10.3905 8.8133 10.3507 8.93162 10.2844 9.03522L8.71875 11.4165C8.64905 11.5242 8.60814 11.648 8.59993 11.776C8.59172 11.904 8.61649 12.032 8.67187 12.1477Z" fill="#009379"/>
<path d="M8.67187 12.1477C9.44364 13.7415 10.7324 15.0269 12.3281 15.7946C12.4458 15.8503 12.576 15.8745 12.7059 15.8646C12.8358 15.8547 12.9608 15.8112 13.0687 15.7383L15.4125 14.1727C15.516 14.1025 15.6357 14.0596 15.7603 14.0482C15.8849 14.0367 16.0104 14.057 16.125 14.1071L20.5125 15.9915C20.6625 16.0539 20.7877 16.1639 20.869 16.3045C20.9504 16.4451 20.9832 16.6085 20.9625 16.7696C20.8234 17.855 20.2937 18.8525 19.4723 19.5755C18.6509 20.2985 17.5943 20.6975 16.5 20.6977C13.1185 20.6977 9.87548 19.3544 7.48439 16.9633C5.0933 14.5722 3.75 11.3292 3.75 7.94772C3.75025 6.85347 4.1492 5.7968 4.87221 4.97543C5.59522 4.15406 6.59274 3.62428 7.67812 3.48522C7.83922 3.46453 8.00266 3.49737 8.14326 3.57868C8.28386 3.65999 8.39384 3.78527 8.45625 3.93522L10.3406 8.3321C10.3896 8.44492 10.4101 8.56807 10.4003 8.69069C10.3905 8.8133 10.3507 8.93162 10.2844 9.03522L8.71875 11.4165C8.64905 11.5242 8.60814 11.648 8.59993 11.776C8.59172 11.904 8.61649 12.032 8.67187 12.1477Z" stroke="#009379" stroke-width="1.5" stroke-linecap="round" stroke-linejoin="round"/>
<path d="M14.9438 4.19775C16.216 4.53917 17.3759 5.20918 18.3073 6.14054C19.2387 7.07191 19.9087 8.23187 20.2501 9.504" stroke="#009379" stroke-width="1.5" stroke-linecap="round" stroke-linejoin="round"/>
<path d="M14.1655 7.0946C14.9306 7.2978 15.6284 7.69965 16.1882 8.25942C16.748 8.81919 17.1498 9.51699 17.353 10.2821" stroke="#009379" stroke-width="1.5" stroke-linecap="round" stroke-linejoin="round"/>
</svg>
