<svg width="20" height="21" viewBox="0 0 20 21" fill="none" xmlns="http://www.w3.org/2000/svg">
<path d="M7.35156 14.4697C6.46094 17.1182 2.92969 17.1182 2.92969 17.1182C2.92969 17.1182 2.92969 13.5869 5.57813 12.6963" stroke="#F8F9FF" stroke-width="1.5" stroke-linecap="round" stroke-linejoin="round"/>
<path d="M15.3047 8.28232L10 13.587L6.46094 10.0479L11.7656 4.74325C13.7734 2.73544 15.7812 2.75888 16.6406 2.88388C16.7732 2.90157 16.8963 2.96241 16.9909 3.05701C17.0855 3.15161 17.1464 3.27471 17.1641 3.40732C17.2891 4.26669 17.3125 6.2745 15.3047 8.28232Z" stroke="#F8F9FF" stroke-width="1.5" stroke-linecap="round" stroke-linejoin="round"/>
<path d="M14.4219 9.16504V14.2119C14.4195 14.3768 14.3521 14.534 14.2344 14.6494L11.7109 17.1807C11.6309 17.2606 11.5306 17.3174 11.4208 17.3448C11.3111 17.3723 11.1959 17.3694 11.0876 17.3365C10.9794 17.3036 10.882 17.242 10.8061 17.1581C10.7301 17.0742 10.6783 16.9713 10.6562 16.8604L10 13.5869" stroke="#F8F9FF" stroke-width="1.5" stroke-linecap="round" stroke-linejoin="round"/>
<path d="M10.8828 5.62598H5.83588C5.67102 5.62832 5.51377 5.69572 5.39838 5.81348L2.86713 8.33691C2.78716 8.41697 2.73043 8.51724 2.70299 8.62701C2.67554 8.73679 2.67842 8.85195 2.7113 8.96022C2.74418 9.0685 2.80584 9.16581 2.8897 9.24178C2.97355 9.31775 3.07646 9.36953 3.18744 9.3916L6.46088 10.0479" stroke="#F8F9FF" stroke-width="1.5" stroke-linecap="round" stroke-linejoin="round"/>
</svg>
