<svg width="32" height="33" viewBox="0 0 32 33" fill="none" xmlns="http://www.w3.org/2000/svg">
<path fill-rule="evenodd" clip-rule="evenodd" d="M0 16.0476C0 7.21105 7.16344 0.0476074 16 0.0476074C24.8366 0.0476074 32 7.21105 32 16.0476C32 24.8842 24.8366 32.0476 16 32.0476C7.16344 32.0476 0 24.8842 0 16.0476Z" fill="#E5F4F2"/>
<path fill-rule="evenodd" clip-rule="evenodd" d="M16.0008 7.51416C13.6833 7.51416 13.3924 7.52429 12.4822 7.56572C11.5737 7.60732 10.9536 7.75114 10.4111 7.96216C9.84981 8.18012 9.37372 8.47168 8.8994 8.94618C8.42473 9.42049 8.13317 9.89658 7.9145 10.4577C7.70294 11.0004 7.55894 11.6207 7.51805 12.5288C7.47734 13.439 7.46667 13.73 7.46667 16.0476C7.46667 18.3651 7.47699 18.6551 7.51823 19.5653C7.56001 20.4738 7.70383 21.0939 7.91468 21.6364C8.13282 22.1977 8.42437 22.6738 8.89887 23.1481C9.37301 23.6228 9.8491 23.915 10.41 24.133C10.9529 24.344 11.5732 24.4878 12.4815 24.5294C13.3917 24.5709 13.6824 24.581 15.9997 24.581C18.3175 24.581 18.6074 24.5709 19.5176 24.5294C20.4261 24.4878 21.0469 24.344 21.5898 24.133C22.1509 23.915 22.6263 23.6228 23.1004 23.1481C23.5751 22.6738 23.8667 22.1977 24.0853 21.6366C24.2951 21.0939 24.4391 20.4736 24.4818 19.5655C24.5227 18.6553 24.5333 18.3651 24.5333 16.0476C24.5333 13.73 24.5227 13.4392 24.4818 12.529C24.4391 11.6205 24.2951 11.0004 24.0853 10.4578C23.8667 9.89658 23.5751 9.42049 23.1004 8.94618C22.6258 8.4715 22.1511 8.17994 21.5893 7.96216C21.0453 7.75114 20.4249 7.60732 19.5164 7.56572C18.6062 7.52429 18.3164 7.51416 15.9981 7.51416H16.0008ZM15.2353 9.05193C15.4625 9.05157 15.716 9.05193 16.0008 9.05193C18.2792 9.05193 18.5492 9.06011 19.449 9.101C20.281 9.13904 20.7326 9.27807 21.0334 9.39487C21.4316 9.54954 21.7155 9.73443 22.014 10.0331C22.3127 10.3318 22.4976 10.6162 22.6526 11.0144C22.7694 11.3149 22.9086 11.7664 22.9464 12.5985C22.9873 13.498 22.9962 13.7682 22.9962 16.0456C22.9962 18.323 22.9873 18.5932 22.9464 19.4928C22.9084 20.3248 22.7694 20.7763 22.6526 21.0768C22.4979 21.475 22.3127 21.7586 22.014 22.057C21.7153 22.3557 21.4318 22.5406 21.0334 22.6953C20.7329 22.8126 20.281 22.9513 19.449 22.9893C18.5494 23.0302 18.2792 23.0391 16.0008 23.0391C13.7222 23.0391 13.4521 23.0302 12.5526 22.9893C11.7205 22.9509 11.269 22.8119 10.968 22.6951C10.5698 22.5404 10.2853 22.3555 9.98666 22.0569C9.68799 21.7582 9.5031 21.4745 9.34808 21.0761C9.23128 20.7756 9.09208 20.324 9.05421 19.492C9.01332 18.5925 9.00514 18.3222 9.00514 16.0435C9.00514 13.7647 9.01332 13.4959 9.05421 12.5963C9.09226 11.7643 9.23128 11.3128 9.34808 11.012C9.50275 10.6137 9.68799 10.3293 9.98666 10.0306C10.2853 9.73194 10.5698 9.54705 10.968 9.39202C11.2688 9.27469 11.7205 9.13602 12.5526 9.0978C13.3398 9.06224 13.6448 9.05157 15.2353 9.0498V9.05193ZM20.5558 10.4688C19.9905 10.4688 19.5318 10.927 19.5318 11.4925C19.5318 12.0578 19.9905 12.5165 20.5558 12.5165C21.1212 12.5165 21.5799 12.0578 21.5799 11.4925C21.5799 10.9272 21.1212 10.4688 20.5558 10.4688ZM16.0008 11.6653C13.5807 11.6653 11.6186 13.6274 11.6186 16.0476C11.6186 18.4677 13.5807 20.4289 16.0008 20.4289C18.4209 20.4289 20.3824 18.4677 20.3824 16.0476C20.3824 13.6274 18.4209 11.6653 16.0008 11.6653ZM16.0008 13.2031C17.5717 13.2031 18.8453 14.4765 18.8453 16.0476C18.8453 17.6184 17.5717 18.892 16.0008 18.892C14.4298 18.892 13.1563 17.6184 13.1563 16.0476C13.1563 14.4765 14.4298 13.2031 16.0008 13.2031Z" fill="#2D2D2D"/>
</svg>
